<svg xmlns="http://www.w3.org/2000/svg" width="52" height="52" viewBox="0 0 52 52" fill="none">
  <g fill="#e44543">
    <path d="M10.6403 30.9065L25.2533 20.2898L23.4579 18.9857L4.14643 33.0159H19.9592L19.2738 30.9058L10.6403 30.9065Z" />
    <path d="M16.4793 12.9373L31.0875 23.5512L31.7729 21.441L27.7206 18.4969L27.7212 18.4964L25.9263 17.1925L25.9257 17.1931L12.4648 7.41318L17.3533 22.4569L19.1482 21.1528L16.4793 12.9373Z" />
    <path d="M35.373 12.9373L29.7896 30.1221H32.0082L39.3862 7.41309L26.599 16.704L28.3945 18.0079L35.373 12.9373Z" />
    <path d="M23.8404 33.0158L47.7059 33.0164L34.9298 23.7337L34.2442 25.8438L41.2117 30.9056H23.1553L23.8404 33.0158Z" />
    <path d="M28.5927 33.8056L25.9263 42.0118L20.3516 24.8554L18.5567 26.1594L25.926 48.8401L30.8111 33.8055L28.5927 33.8056Z" />
    <path d="M25.9998 51C12.2145 51 1 39.785 1 25.9998C1 12.215 12.215 1 25.9998 1C39.785 1 51 12.215 51 25.9998C51 39.785 39.785 51 25.9998 51ZM25.9998 3.33308C13.5013 3.33308 3.33308 13.5018 3.33308 25.9998C3.33308 38.4982 13.5013 48.6669 25.9998 48.6669C38.4982 48.6669 48.6669 38.4982 48.6669 25.9998C48.6669 13.5018 38.4987 3.33308 25.9998 3.33308Z" />
  </g>
</svg>
